<?xml version="1.0" encoding="utf-8"?>
<!-- Generator: Adobe Illustrator 16.0.0, SVG Export Plug-In . SVG Version: 6.00 Build 0)  -->
<!DOCTYPE svg PUBLIC "-//W3C//DTD SVG 1.1//EN" "http://www.w3.org/Graphics/SVG/1.1/DTD/svg11.dtd">
<svg version="1.1" id="Layer_1" xmlns="http://www.w3.org/2000/svg" xmlns:xlink="http://www.w3.org/1999/xlink" x="0px" y="0px"
	 width="24px" height="24px" viewBox="0 0 24 24" enable-background="new 0 0 24 24" xml:space="preserve">
<g>
	<path fill="#FFFFFF" d="M14.247,0.012C13.27,0.164,12.831,0.721,12,0.772c-0.83,0.051-1.27-0.607-2.246-0.759
		C8.778-0.139,6.825,0.722,6.923,2.19C7.021,3.659,12,12.064,12,12.064s4.979-8.405,5.077-9.875
		C17.175,0.721,15.225-0.14,14.247,0.012z M12,11.034c-0.806-1.402-1.57-2.848-1.616-3.154c-0.001-0.02-0.005-0.073,0.07-0.153
		c0.126-0.135,0.363-0.226,0.53-0.226c0.001,0,0.002,0,0.003,0c0.105,0.016,0.192,0.063,0.302,0.121
		c0.168,0.089,0.377,0.2,0.731,0.2c0.003,0,0.006,0,0.01,0c0.277-0.017,0.48-0.117,0.644-0.197c0.12-0.059,0.214-0.105,0.361-0.125
		c0.144,0,0.383,0.091,0.511,0.228c0.075,0.081,0.071,0.134,0.071,0.144C13.569,8.184,12.806,9.632,12,11.034z"/>
	<path fill="#FFFFFF" d="M4.469,4.04C3.152,3.49,1.76,5.15,1.598,6.16C1.435,7.17,1.81,7.776,1.6,8.61s-0.95,1.064-1.391,1.981
		c-0.44,0.916-0.254,3.109,1.122,3.466C2.708,14.414,11.953,12.1,11.953,12.1S5.785,4.59,4.469,4.04z M7.681,12.373
		c-0.049-0.013-0.086-0.075-0.109-0.124c-0.101-0.217-0.079-0.524-0.033-0.619c0.05-0.104,0.121-0.177,0.21-0.27
		c0.144-0.149,0.324-0.334,0.403-0.65c0.067-0.268,0.04-0.494,0.017-0.676c-0.017-0.14-0.031-0.251-0.009-0.387
		C8.19,9.463,8.47,9.14,8.657,9.14c0,0,0.001,0,0.001,0c0.279,0.152,1.385,1.371,2.424,2.604c-1.129,0.266-2.793,0.628-3.355,0.628
		L7.681,12.373z"/>
	<path fill="#FFFFFF" d="M3.325,20.537c0.875,0.472,1.547,0.289,2.247,0.755c0.7,0.464,0.682,1.265,1.386,1.983
		s2.772,1.213,3.525-0.035s1.488-11.084,1.488-11.084s-8.791,3.765-9.703,4.893C1.357,18.178,2.449,20.064,3.325,20.537z
		 M8.328,14.426c0.22-0.225,1.654-0.928,3.094-1.568c-0.143,1.635-0.346,3.288-0.481,3.566c-0.039,0.063-0.139,0.077-0.216,0.077
		c-0.211,0-0.414-0.099-0.467-0.153c-0.079-0.081-0.125-0.174-0.182-0.29c-0.092-0.189-0.207-0.424-0.476-0.603
		c-0.232-0.155-0.454-0.198-0.633-0.233c-0.13-0.025-0.232-0.045-0.343-0.104c-0.081-0.044-0.264-0.259-0.312-0.498
		C8.294,14.526,8.301,14.459,8.328,14.426z"/>
	<path fill="#FFFFFF" d="M23.791,10.591c-0.441-0.917-1.088-1.178-1.391-1.98c-0.303-0.803,0.164-1.44,0.002-2.45
		C22.24,5.15,20.848,3.49,19.531,4.04s-7.485,8.06-7.485,8.06s9.247,2.314,10.622,1.957C24.045,13.699,24.23,11.507,23.791,10.591z
		 M16.428,12.249c-0.022,0.049-0.061,0.111-0.096,0.121l-0.06,0.002c-0.562,0-2.227-0.362-3.355-0.628
		c1.04-1.233,2.148-2.453,2.444-2.605c0.168,0,0.448,0.324,0.478,0.508c0.02,0.117,0.003,0.221-0.017,0.352
		c-0.032,0.207-0.072,0.464,0.042,0.768c0.099,0.259,0.251,0.426,0.373,0.56c0.093,0.102,0.166,0.182,0.224,0.303
		C16.507,11.724,16.529,12.032,16.428,12.249z"/>
	<path fill="#FFFFFF" d="M12.028,12.156c0,0,0.736,9.837,1.49,11.084c0.752,1.246,2.819,0.754,3.522,0.035
		c0.703-0.717,0.745-1.437,1.387-1.983s1.371-0.282,2.246-0.755c0.877-0.473,1.97-2.359,1.058-3.488
		C20.82,15.921,12.028,12.156,12.028,12.156z M15.375,15.116c-0.095,0.051-0.19,0.066-0.312,0.086
		c-0.194,0.032-0.461,0.075-0.711,0.289c-0.209,0.178-0.315,0.379-0.401,0.541c-0.064,0.123-0.116,0.221-0.209,0.315
		c-0.054,0.055-0.256,0.153-0.466,0.153c-0.078,0-0.179-0.014-0.212-0.068c-0.14-0.286-0.344-1.941-0.486-3.575
		c1.439,0.641,2.873,1.343,3.087,1.561c0.033,0.041,0.041,0.109,0.022,0.201C15.64,14.858,15.456,15.073,15.375,15.116z"/>
</g>
</svg>
